<svg width="1063" height="728" viewBox="0 0 1063 728" fill="none" xmlns="http://www.w3.org/2000/svg">
<g clip-path="url(#clip0_1978_716)">
<path d="M1063 0H0V728H1063V0Z" fill="#35363A"/>
<path d="M953.356 457.168C952.536 456.669 937.613 444.194 920.195 429.447C867.082 384.48 700.153 243.682 681.087 227.769C652.566 203.966 548.617 116.627 523.101 95.0287L499.826 75.3265L421.443 104.032C351.939 129.486 343.126 132.914 343.633 134.3C344.1 135.574 400.525 183.54 419.212 198.548C421.949 200.747 436.512 212.96 451.574 225.689C466.636 238.418 484.836 253.752 492.018 259.764C513.255 277.541 515.996 280.037 515.96 281.564C515.941 282.363 512.976 286.929 509.371 291.709C498.631 305.951 428.253 394.857 427.501 395.132C427.119 395.272 425.818 394.832 424.609 394.154C423.401 393.476 372.371 350.751 311.209 299.209C250.047 247.667 169.798 180.157 132.876 149.186C61.5169 89.3277 58.4988 86.7248 57.5983 84.2659C57.0794 82.8491 75.1686 76.0389 232.347 18.4766L407.674 -45.7324L429.58 -50.8122C481.362 -62.8204 522.68 -65.8867 572.886 -61.4476C665.007 -53.3026 762.613 -7.94526 829.92 57.9956C866.147 93.4874 892.748 130.508 916.347 178.277C925.372 196.545 947.064 256.814 951.813 276.813C961.707 318.479 965.384 358.039 963.237 399.711C962.056 422.641 957.281 457.186 955.187 457.953C955.001 458.021 954.177 457.668 953.356 457.168V457.168Z" fill="#FE842C" fill-opacity="0.5"/>
<path d="M224.357 619.422C164.651 459.319 116.036 328.436 116.323 328.571C117.532 329.144 339.788 513.911 416.984 578.519C463.935 617.814 533.125 675.179 537.633 678.549L541.183 681.202L619.375 652.043C689.034 626.066 697.509 622.727 697.035 621.455C696.742 620.669 675.986 602.997 650.911 582.184C625.836 561.371 591.054 532.484 573.616 517.991L541.912 491.641L554.207 476.089C560.969 467.535 569.083 457.219 572.237 453.166C589.412 431.095 629.218 380.944 629.887 380.534C630.81 379.969 618.418 369.782 792.575 514.279C826.768 542.649 864.531 573.731 876.494 583.351C888.456 592.972 898.683 601.34 899.22 601.948C899.849 602.66 898.205 606.098 894.609 611.593C848.927 681.402 788.245 733.463 712.412 767.908C704.268 771.607 629.532 799.889 516.088 842.201L332.913 910.521L224.357 619.422Z" fill="white" fill-opacity="0.5"/>
</g>
<defs>
<clipPath id="clip0_1978_716">
<rect width="1063" height="728" fill="white"/>
</clipPath>
</defs>
</svg>
